<svg viewBox="0 0 512 512" xmlns="http://www.w3.org/2000/svg"><defs><linearGradient id="bgx" x1="0" y1="0" x2="1" y2="1"><stop offset="0" stop-color="#3C8463"/><stop offset="1" stop-color="#1E4B36"/></linearGradient><radialGradient id="glx" cx=".3" cy=".2" r=".9"><stop offset="0" stop-color="#fff" stop-opacity=".15"/><stop offset="1" stop-color="#fff" stop-opacity="0"/></radialGradient></defs><rect width="512" height="512" fill="url(#bgx)"/><rect width="512" height="512" fill="url(#glx)"/><g><rect x="126" y="104" width="260" height="44" rx="22" fill="#F5F0E4"/><rect x="126" y="364" width="260" height="44" rx="22" fill="#F5F0E4"/><path d="M 176 148 L 336 148 C 336 212 292 240 274 256 C 292 272 336 300 336 364 L 176 364 C 176 300 220 272 238 256 C 220 240 176 212 176 148 Z" fill="#F5F0E4"/><path d="M 200 176 L 312 176 C 310 216 280 240 262 252 L 250 252 C 232 240 202 216 200 176 Z" fill="#E8CD92"/><rect x="249" y="262" width="14" height="52" rx="7" fill="#E8CD92" opacity=".95"/><path d="M 256 300 C 280 316 306 334 312 340 L 200 340 C 206 334 232 316 256 300 Z" fill="#E8CD92"/></g></svg>